# xmcd
#
# Track frame offsets:
#	150
#	18185
#	29128
#	46758
#	59780
#	80410
#	90328
#	106373
#	125378
#	139388
#
# Disc length: 2050 seconds
#
# Revision: 2
# Processed by: cddbd v1.4PL0 Copyright (c) Steve Scherf et al.
# Submitted via: CDmax 1.9
#
DISCID=8308000a
DTITLE=Marty Brown - High and Dry
DYEAR=1991
DGENRE=Country
TTITLE0=High and Dry
TTITLE1=Your Sugar Daddy's Long Gone
TTITLE2=Indian Summer Blues
TTITLE3=Every Now and Then
TTITLE4=I'll Climb any Mountain
TTITLE5=Don't Worry Baby
TTITLE6=Honky Tonk Special
TTITLE7=Wildest Dreams
TTITLE8=Ole King Kong
TTITLE9=Nobody Knows
EXTD=
EXTT0=
EXTT1=
EXTT2=
EXTT3=
EXTT4=
EXTT5=
EXTT6=
EXTT7=
EXTT8=
EXTT9=
PLAYORDER=
